<svg width="14" height="14" fill="none" xmlns="http://www.w3.org/2000/svg"><path d="M11.911 1.7A7.206 7.206 0 009.324.33 7.763 7.763 0 006.646.014c-.39.02-.777.061-1.16.124a7.377 7.377 0 00-2.318.829A6.308 6.308 0 00.805 3.164a5.016 5.016 0 00-.65 3.966 5.498 5.498 0 001.805 2.885 7.36 7.36 0 003.986 1.74.645.645 0 01.454.224.628.628 0 01.145.48c0 .228-.052.453-.08.678a1.302 1.302 0 00-.028.512.174.174 0 00.128.16.18.18 0 00.072.006c.144-.018.286-.054.42-.107a9.434 9.434 0 001.692-.998 27.898 27.898 0 003.302-2.7c.358-.326.683-.685.969-1.073A5.23 5.23 0 0014 5.932c0-.478-.066-.953-.197-1.413a5.703 5.703 0 00-1.892-2.82zm-7.75 5.31a.813.813 0 01-.749-.49.785.785 0 01.176-.868.809.809 0 01.882-.168.803.803 0 01.36.298.787.787 0 01-.107.998.808.808 0 01-.562.23zm2.83 0a.813.813 0 01-.445-.138.797.797 0 01-.336-.816.791.791 0 01.222-.405.809.809 0 01.877-.168.787.787 0 01.494.734.797.797 0 01-.24.561.819.819 0 01-.571.233V7.01zm2.848 0a.813.813 0 01-.747-.488.785.785 0 01.173-.867.808.808 0 01.878-.174c.147.06.273.163.362.294a.787.787 0 01-.099 1.002.81.81 0 01-.567.234V7.01z" fill="#656565"/></svg>