<svg width="14" height="15" fill="none" xmlns="http://www.w3.org/2000/svg"><path d="M11.911 2.686a7.206 7.206 0 00-2.587-1.37A7.763 7.763 0 006.646 1c-.39.02-.777.062-1.16.125a7.377 7.377 0 00-2.318.829A6.308 6.308 0 00.805 4.15a5.016 5.016 0 00-.65 3.966 5.498 5.498 0 001.805 2.885 7.361 7.361 0 003.986 1.741.643.643 0 01.577.45c.025.082.032.17.022.255 0 .226-.052.452-.08.677a1.303 1.303 0 00-.028.512.173.173 0 00.063.126.18.18 0 00.137.04c.144-.018.286-.054.42-.108a9.428 9.428 0 001.692-.997 27.898 27.898 0 003.302-2.701c.358-.325.683-.684.969-1.072A5.23 5.23 0 0014 6.919c0-.478-.066-.953-.197-1.413a5.703 5.703 0 00-1.892-2.82zm-7.75 5.31a.813.813 0 01-.749-.489.785.785 0 01.176-.868.809.809 0 01.882-.168.803.803 0 01.36.297.787.787 0 01-.107.999.808.808 0 01-.562.23zm2.83 0a.812.812 0 01-.738-.495.785.785 0 01.18-.863.809.809 0 01.876-.169.797.797 0 01.495.734.797.797 0 01-.241.562.819.819 0 01-.571.233v-.001zm2.848 0a.813.813 0 01-.747-.487.785.785 0 01.173-.868.808.808 0 01.878-.173.787.787 0 01.263 1.296.81.81 0 01-.567.234v-.001z" fill="#fff"/></svg>