<svg width="18" height="20" fill="none" xmlns="http://www.w3.org/2000/svg"><path d="M14.336 7.334A3.675 3.675 0 0018 3.667 3.675 3.675 0 0014.336 0a3.675 3.675 0 00-3.664 3.667c0 .222.025.443.074.665l-4.623 2.83c-.64-.59-1.5-.96-2.46-.96A3.675 3.675 0 000 9.869a3.675 3.675 0 003.664 3.667c.959 0 1.82-.37 2.459-.96l4.598 2.83a3.079 3.079 0 00-.073.665 3.675 3.675 0 003.664 3.667 3.675 3.675 0 003.663-3.667 3.675 3.675 0 00-3.664-3.667 3.607 3.607 0 00-2.729 1.23l-4.426-2.707a3.5 3.5 0 00.147-1.033 3.5 3.5 0 00-.147-1.034l4.426-2.707a3.799 3.799 0 002.754 1.181z" fill="#333"/></svg>