<svg width="16" height="16" fill="none" xmlns="http://www.w3.org/2000/svg"><path d="M15.874 4.9L11.035.124a.433.433 0 00-.606 0L8.486 2.04a.42.42 0 000 .599l4.84 4.776a.433.433 0 00.606 0l1.942-1.918a.419.419 0 000-.598zm-5.454.606L8.066 3.183a.632.632 0 00-.74-.107l-3.93 2.086a.62.62 0 00-.296.348L.013 14.594a.247.247 0 00.06.255h.001a.255.255 0 00.357 0l4.594-4.533a.448.448 0 00.114-.413 1.021 1.021 0 01.455-1.06c.337-.221.79-.223 1.13-.005.578.373.637 1.145.177 1.6a1.048 1.048 0 01-.928.282.484.484 0 00-.433.119L.954 15.365a.247.247 0 000 .352c.067.067.168.09.258.06l9.205-3.046a.624.624 0 00.352-.293l2.114-3.879a.612.612 0 00-.108-.73L10.42 5.507z" fill="#fff"/></svg>