<svg width="10" height="10" viewBox="0 0 10 10" fill="none" xmlns="http://www.w3.org/2000/svg">
<path fill-rule="evenodd" clip-rule="evenodd" d="M4.11164 1.97042C4.11164 1.97042 3.24889 2.8707 3.24889 3.02075C3.36142 4.22113 5.76212 6.6219 6.96247 6.73443C7.15003 6.73443 8.05029 5.90917 8.05029 5.90917C8.05029 5.90917 9.36317 7.10955 9.8133 7.59721C10.3009 8.12238 9.73828 8.61003 9.21313 9.24773C8.65046 9.84793 8.05029 10.4106 6.96247 9.58534C3.51147 7.03453 2.98631 6.47185 0.39806 3.02075C-0.389669 1.9329 0.135483 1.33271 0.735658 0.807546C1.37334 0.244867 1.86099 -0.2803 2.38614 0.169843C2.87378 0.657499 4.11164 1.97042 4.11164 1.97042Z" fill="#1D1D1D"/>
</svg>
