<svg width="16" height="16" viewBox="0 0 16 16" fill="none" xmlns="http://www.w3.org/2000/svg">
<path d="M15.8744 4.89998L11.035 0.123911C10.8676 -0.0413037 10.5961 -0.0413037 10.4287 0.123911L8.48591 2.04129C8.3185 2.2065 8.3185 2.47436 8.48591 2.63957L13.3254 7.41564C13.4928 7.58085 13.7642 7.58085 13.9316 7.41564L15.8744 5.49827C16.0419 5.33305 16.0419 5.0652 15.8744 4.89998Z" fill="white"/>
<path d="M10.4203 5.50639L8.06598 3.18295C7.87053 2.99007 7.57006 2.94648 7.32664 3.0757L3.3969 5.16184C3.25671 5.23627 3.15051 5.3606 3.09989 5.50956L0.0131092 14.5936C-0.017345 14.6832 0.00620691 14.7821 0.0739335 14.8489L0.0739935 14.849C0.172558 14.9463 0.33238 14.9463 0.430956 14.849L5.02454 10.3156C5.13376 10.2078 5.16872 10.0531 5.13917 9.90348C5.06244 9.51503 5.21213 9.09241 5.59352 8.84287C5.93108 8.622 6.38456 8.61967 6.72372 8.83813C7.30209 9.21066 7.36113 9.98334 6.90087 10.4376C6.64841 10.6867 6.29956 10.7798 5.97337 10.7199C5.81569 10.6909 5.65316 10.7268 5.53975 10.8388L0.953587 15.3648C0.85501 15.4621 0.85501 15.6198 0.953587 15.7171C1.02131 15.7839 1.12153 15.8072 1.21233 15.7771L10.4171 12.7308C10.568 12.6808 10.694 12.576 10.7694 12.4377L12.8833 8.55947C13.0142 8.31924 12.97 8.02271 12.7746 7.82982L10.4203 5.50639Z" fill="white"/>
</svg>
