<svg width="24" height="24" viewBox="0 0 24 24" fill="none" xmlns="http://www.w3.org/2000/svg">
<path d="M24 21.2856L17.6089 14.8946C18.6145 13.3756 19.1997 11.5576 19.1997 9.60059C19.1997 4.29785 14.9019 0 9.59988 0C4.29781 0 0 4.29785 0 9.60059C0 14.9019 4.29786 19.2012 9.59988 19.2012C11.5561 19.2012 13.3763 18.6139 14.8938 17.6089L21.2849 24L24 21.2856ZM2.72025 9.60204C2.72025 5.80222 5.80079 2.72312 9.59988 2.72312C13.3997 2.72312 16.4802 5.80222 16.4802 9.60204C16.4802 13.4019 13.3997 16.4824 9.59988 16.4824C5.80079 16.4824 2.72025 13.4019 2.72025 9.60204Z" fill="white"/>
</svg>
