<svg width="14" height="15" viewBox="0 0 14 15" fill="none" xmlns="http://www.w3.org/2000/svg">
<path d="M11.9112 2.68593C11.1536 2.05847 10.2728 1.59235 9.32397 1.31682C8.74283 1.14187 8.14268 1.03566 7.53615 1.00045C7.23964 0.982272 6.94226 0.982272 6.64575 1.00045C6.25682 1.02032 5.86933 1.06183 5.48514 1.12479C4.67085 1.26977 3.88739 1.55005 3.16813 1.95371C2.20059 2.47119 1.38617 3.22821 0.80491 4.15036C0.42909 4.7332 0.177651 5.38554 0.0659592 6.06751C-0.0457324 6.74949 -0.0153309 7.44678 0.155306 8.11677C0.434577 9.24162 1.06603 10.251 1.95992 11.0014C3.07836 11.9679 4.46873 12.5752 5.94574 12.7422C6.033 12.7468 6.11835 12.7691 6.19651 12.8077C6.27468 12.8462 6.34399 12.9002 6.40017 12.9662C6.45634 13.0323 6.49817 13.109 6.52308 13.1917C6.54798 13.2743 6.55542 13.3611 6.54495 13.4468C6.54495 13.6733 6.49315 13.8985 6.46515 14.1237C6.4219 14.2911 6.41239 14.4652 6.43715 14.6363C6.4383 14.6605 6.44452 14.6842 6.45542 14.7059C6.46631 14.7276 6.48165 14.7468 6.50046 14.7624C6.51927 14.778 6.54114 14.7895 6.5647 14.7964C6.58826 14.8032 6.61299 14.8051 6.63735 14.802C6.78139 14.7837 6.92251 14.7475 7.05735 14.6943C7.65494 14.4212 8.22179 14.0868 8.74856 13.6968C9.91785 12.8812 11.022 11.9783 12.0512 10.9959C12.4095 10.6713 12.734 10.3121 13.02 9.92382C13.6497 9.04433 13.9916 7.99579 14 6.91897C14.0006 6.44113 13.9342 5.96551 13.8026 5.50565C13.4752 4.39878 12.8158 3.41571 11.9112 2.68593ZM4.16073 7.99657C4.00081 7.99766 3.84418 7.95171 3.71083 7.86459C3.57748 7.77747 3.47345 7.65313 3.412 7.50743C3.35055 7.36173 3.33447 7.20127 3.36582 7.04651C3.39716 6.89175 3.47451 6.74972 3.58799 6.63852C3.70147 6.52732 3.84595 6.45199 4.00299 6.42215C4.16003 6.39231 4.32252 6.4093 4.46973 6.47096C4.61695 6.53262 4.74221 6.63616 4.82956 6.76836C4.9169 6.90056 4.96236 7.05544 4.96014 7.21324C4.95793 7.42127 4.87282 7.62009 4.72322 7.76668C4.57362 7.91327 4.37156 7.99586 4.16073 7.99657ZM6.99155 7.99657C6.83258 7.99521 6.67758 7.94743 6.54609 7.85925C6.4146 7.77108 6.31252 7.64646 6.2527 7.50111C6.19289 7.35576 6.17802 7.19619 6.20998 7.04251C6.24194 6.88884 6.3193 6.74794 6.43229 6.63759C6.54529 6.52724 6.68887 6.45237 6.84492 6.42243C7.00097 6.39249 7.16252 6.40882 7.30918 6.46935C7.45584 6.52989 7.58106 6.63192 7.66904 6.76258C7.75702 6.89325 7.80383 7.04669 7.80356 7.20357C7.80135 7.41477 7.71487 7.61661 7.56286 7.76531C7.41086 7.91401 7.20559 7.9976 6.99155 7.99795V7.99657ZM9.83917 7.99657C9.67972 7.99739 9.52361 7.95147 9.39065 7.86462C9.25768 7.77777 9.15385 7.65391 9.09232 7.50875C9.03079 7.36359 9.01433 7.20366 9.04502 7.04926C9.07572 6.89485 9.1522 6.75292 9.26475 6.64146C9.37731 6.53001 9.52087 6.45404 9.67723 6.42321C9.83359 6.39238 9.99571 6.40806 10.143 6.46828C10.2903 6.52849 10.4162 6.63052 10.5047 6.76143C10.5932 6.89233 10.6402 7.04622 10.64 7.20357C10.6403 7.41365 10.5562 7.61529 10.4061 7.76423C10.2559 7.91316 10.0521 7.99722 9.83917 7.99795V7.99657Z" fill="white"/>
</svg>
