<svg width="14" height="14" viewBox="0 0 14 14" fill="none" xmlns="http://www.w3.org/2000/svg">
<path d="M11.9112 1.69911C11.1536 1.07166 10.2728 0.605532 9.32397 0.330005C8.74283 0.155049 8.14268 0.048847 7.53615 0.0136324C7.23964 -0.00454414 6.94226 -0.00454414 6.64575 0.0136324C6.25682 0.0335014 5.86933 0.0750136 5.48514 0.137971C4.67085 0.282949 3.88739 0.563236 3.16813 0.966896C2.20059 1.48438 1.38617 2.2414 0.80491 3.16355C0.42909 3.74638 0.177651 4.39872 0.0659592 5.0807C-0.0457324 5.76267 -0.0153309 6.45996 0.155306 7.12995C0.434577 8.2548 1.06603 9.26418 1.95992 10.0146C3.07836 10.9811 4.46873 11.5884 5.94574 11.7553C6.033 11.76 6.11835 11.7823 6.19651 11.8209C6.27468 11.8594 6.34399 11.9134 6.40017 11.9794C6.45634 12.0455 6.49817 12.1222 6.52308 12.2049C6.54798 12.2875 6.55542 12.3743 6.54495 12.4599C6.54495 12.6865 6.49315 12.9117 6.46515 13.1369C6.4219 13.3043 6.41239 13.4784 6.43715 13.6494C6.4383 13.6736 6.44452 13.6973 6.45542 13.7191C6.46631 13.7408 6.48165 13.76 6.50046 13.7756C6.51927 13.7912 6.54114 13.8027 6.5647 13.8096C6.58826 13.8164 6.61299 13.8183 6.63735 13.8152C6.78139 13.7969 6.92251 13.7607 7.05735 13.7075C7.65494 13.4343 8.22179 13.1 8.74856 12.71C9.91785 11.8944 11.022 10.9915 12.0512 10.0091C12.4095 9.68444 12.734 9.3253 13.02 8.93701C13.6497 8.05751 13.9916 7.00898 14 5.93215C14.0006 5.45431 13.9342 4.97869 13.8026 4.51884C13.4752 3.41196 12.8158 2.42889 11.9112 1.69911ZM4.16073 7.00976C4.00081 7.01084 3.84418 6.96489 3.71083 6.87777C3.57748 6.79066 3.47345 6.66632 3.412 6.52061C3.35055 6.37491 3.33447 6.21445 3.36582 6.05969C3.39716 5.90494 3.47451 5.7629 3.58799 5.6517C3.70147 5.5405 3.84595 5.46518 4.00299 5.43533C4.16003 5.40549 4.32252 5.42248 4.46973 5.48415C4.61695 5.54581 4.74221 5.64934 4.82956 5.78154C4.9169 5.91374 4.96236 6.06862 4.96014 6.22642C4.95793 6.43446 4.87282 6.63327 4.72322 6.77986C4.57362 6.92646 4.37156 7.00904 4.16073 7.00976ZM6.99155 7.00976C6.83258 7.00839 6.67758 6.96061 6.54609 6.87244C6.4146 6.78426 6.31252 6.65964 6.2527 6.51429C6.19289 6.36894 6.17802 6.20937 6.20998 6.05569C6.24194 5.90202 6.3193 5.76112 6.43229 5.65077C6.54529 5.54042 6.68887 5.46556 6.84492 5.43562C7.00097 5.40568 7.16252 5.422 7.30918 5.48254C7.45584 5.54307 7.58106 5.6451 7.66904 5.77577C7.75702 5.90643 7.80383 6.05987 7.80356 6.21675C7.80135 6.42796 7.71487 6.62979 7.56286 6.77849C7.41086 6.9272 7.20559 7.01079 6.99155 7.01114V7.00976ZM9.83917 7.00976C9.67972 7.01058 9.52361 6.96465 9.39065 6.8778C9.25768 6.79095 9.15385 6.66709 9.09232 6.52193C9.03079 6.37677 9.01433 6.21685 9.04502 6.06244C9.07572 5.90803 9.1522 5.7661 9.26475 5.65465C9.37731 5.54319 9.52087 5.46723 9.67723 5.4364C9.83359 5.40556 9.99571 5.42125 10.143 5.48146C10.2903 5.54167 10.4162 5.6437 10.5047 5.77461C10.5932 5.90552 10.6402 6.0594 10.64 6.21675C10.6403 6.42683 10.5562 6.62847 10.4061 6.77741C10.2559 6.92634 10.0521 7.01041 9.83917 7.01114V7.00976Z" fill="#656565"/>
</svg>
