<svg width="18" height="20" viewBox="0 0 18 20" fill="none" xmlns="http://www.w3.org/2000/svg">
<path d="M14.3361 7.33411C16.3525 7.33411 18 5.68516 18 3.66705C18 1.64894 16.3525 0 14.3361 0C12.3197 0 10.6721 1.64894 10.6721 3.66705C10.6721 3.88855 10.6967 4.11005 10.7459 4.33155L6.12295 7.16183C5.48361 6.57116 4.62295 6.202 3.66393 6.202C1.64754 6.202 0 7.85094 0 9.86905C0 11.8872 1.64754 13.5361 3.66393 13.5361C4.62295 13.5361 5.48361 13.1669 6.12295 12.5763L10.7213 15.4065C10.6721 15.628 10.6475 15.8495 10.6475 16.071C10.6475 18.0892 12.2951 19.7381 14.3115 19.7381C16.3279 19.7381 17.9754 18.0892 17.9754 16.071C17.9754 14.0529 16.3279 12.404 14.3115 12.404C13.2295 12.404 12.2459 12.8716 11.582 13.6345L7.15574 10.9273C7.2541 10.6074 7.30328 10.2628 7.30328 9.89366C7.30328 9.52449 7.2541 9.17994 7.15574 8.85999L11.582 6.15277C12.2705 6.8665 13.2295 7.33411 14.3361 7.33411Z" fill="#333333"/>
</svg>
